<svg xmlns="http://www.w3.org/2000/svg" xmlns:xlink="http://www.w3.org/1999/xlink"><defs><path id="a" d="M774.74 38.18c0 1.68-1.46 3.04-3.24 3.04-1.78 0-3.24-1.36-3.24-3.04 0-1.69 1.46-3.05 3.24-3.05 1.78 0 3.24 1.36 3.24 3.05zm-.87 0c0-1.23-1.07-2.23-2.37-2.23s-2.37 1-2.37 2.23c0 1.22 1.07 2.22 2.37 2.22s2.37-1 2.37-2.22zm3.12 0c0 1.63-1.48 4.09-2.35 5.4-.58.86-1.2 1.69-1.74 2.32-.88 1-1.17 1.1-1.4 1.1-.23 0-.54-.1-1.41-1.1a23.49 23.49 0 0 1-1.74-2.32c-.87-1.31-2.34-3.76-2.34-5.4 0-2.86 2.46-5.18 5.49-5.18 3.03 0 5.49 2.32 5.49 5.18zm-.87 0c0-2.4-2.07-4.35-4.62-4.35-2.55 0-4.62 1.95-4.62 4.35 0 1 .76 2.75 2.08 4.77a15.73 15.73 0 0 0 2.53 3.18c.38-.3 1.42-1.46 2.54-3.18 1.33-2.03 2.09-3.77 2.09-4.77z"/><path id="a" d="M1150 7485.46c0 1.96-1.49 3.54-3.32 3.54-.57 0-1.1-.15-1.57-.42-.34.07-.69.1-1.05.1-3.16 0-5.72-2.73-5.72-6.11 0-.42.04-.83.12-1.23a3.72 3.72 0 0 1-.46-1.8c0-1.96 1.49-3.54 3.32-3.54.65 0 1.25.2 1.77.54.31-.06.64-.09.97-.09 3.16 0 5.73 2.74 5.73 6.12 0 .45-.05.89-.14 1.31.22.48.35 1.01.35 1.58zm-2.6-1.33a2.03 2.03 0 0 0-.88-1.8c-.27-.2-.6-.36-.98-.49-.37-.13-.8-.24-1.26-.35l-.8-.2a2.43 2.43 0 0 1-.45-.2 1.04 1.04 0 0 1-.35-.28.56.56 0 0 1-.11-.35c0-.23.12-.42.35-.59a1.7 1.7 0 0 1 1-.26c.44 0 .76.08.95.23a2 2 0 0 1 .51.68c.13.23.24.39.35.5.11.1.28.15.49.15.23 0 .43-.08.59-.26a.86.86 0 0 0 .23-.59c0-.23-.06-.46-.18-.7-.11-.23-.3-.45-.55-.66a2.76 2.76 0 0 0-.95-.5 4.27 4.27 0 0 0-1.33-.2c-.64 0-1.2.1-1.68.29-.48.19-.86.46-1.11.82-.26.36-.4.78-.4 1.24 0 .48.13.9.38 1.23.24.32.57.58.98.76.4.19.9.35 1.5.48.44.1.79.2 1.05.28.25.09.46.2.61.36.15.15.22.34.22.58 0 .3-.14.56-.42.77-.3.2-.68.32-1.15.32-.35 0-.63-.06-.84-.16-.2-.1-.36-.24-.48-.4a3.13 3.13 0 0 1-.32-.62c-.1-.23-.2-.4-.34-.53a.73.73 0 0 0-.5-.18.8.8 0 0 0-.84.81c0 .36.12.73.37 1.1.24.38.55.68.94.9.54.3 1.23.46 2.05.46a4.4 4.4 0 0 0 1.79-.34 2.43 2.43 0 0 0 1.56-2.3zM1193 7461v40.1"/><path id="a" d="M1105.06 7477c.8 0 1.44.66 1.44 1.47 0 .81-.64 1.47-1.44 1.47-.8 0-1.44-.66-1.44-1.47 0-.81.65-1.47 1.44-1.47zm5.83 0c.8 0 1.45.66 1.45 1.47 0 .81-.65 1.47-1.45 1.47-.8 0-1.45-.66-1.45-1.47 0-.81.65-1.47 1.45-1.47zm-7.45 5.95c.32.25.37.7.13 1.03l-.5.62c.52.6 2.02 1.94 4.9 1.94 2.56 0 4.02-1.4 4.68-2.27l-.15-.2a.76.76 0 0 1 .12-1.05.7.7 0 0 1 1.01.12l2.22 2.94c.25.33.2.8-.12 1.05a.7.7 0 0 1-1.01-.13l-1.17-1.55a6.9 6.9 0 0 1-5.58 2.56 8.97 8.97 0 0 1-5.82-2.21l-.84 1.07a.73.73 0 0 1-1.02.12.74.74 0 0 1-.12-1.03l2.25-2.89a.73.73 0 0 1 1.02-.12z"/></defs><symbol id="icon-loc" viewBox="0 0 13 16"><use xlink:href="#a" transform="translate(-765 -32)"/></symbol><symbol id="icon-skype" viewBox="0 0 12 13"><use xlink:href="#a" transform="translate(-1138 -7476)"/></symbol><symbol id="icon-sss" viewBox="0 0 16 11"><use xlink:href="#a" transform="translate(-1100 -7477)"/></symbol></svg>