<svg xmlns="http://www.w3.org/2000/svg" xmlns:xlink="http://www.w3.org/1999/xlink"><defs><path id="a" d="M774.74 38.18c0 1.68-1.46 3.04-3.24 3.04-1.78 0-3.24-1.36-3.24-3.04 0-1.69 1.46-3.05 3.24-3.05 1.78 0 3.24 1.36 3.24 3.05zm-.87 0c0-1.23-1.07-2.23-2.37-2.23s-2.37 1-2.37 2.23c0 1.22 1.07 2.22 2.37 2.22s2.37-1 2.37-2.22zm3.12 0c0 1.63-1.48 4.09-2.35 5.4-.58.86-1.2 1.69-1.74 2.32-.88 1-1.17 1.1-1.4 1.1-.23 0-.54-.1-1.41-1.1a23.49 23.49 0 0 1-1.74-2.32c-.87-1.31-2.34-3.76-2.34-5.4 0-2.86 2.46-5.18 5.49-5.18 3.03 0 5.49 2.32 5.49 5.18zm-.87 0c0-2.4-2.07-4.35-4.62-4.35-2.55 0-4.62 1.95-4.62 4.35 0 1 .76 2.75 2.08 4.77a15.73 15.73 0 0 0 2.53 3.18c.38-.3 1.42-1.46 2.54-3.18 1.33-2.03 2.09-3.77 2.09-4.77z"/></defs><symbol id="icon-loc" viewBox="0 0 13 16"><use xlink:href="#a" transform="translate(-765 -32)"/></symbol></svg>